<mxfile host="app.diagrams.net" modified="2022-06-23T00:57:23.991Z" agent="5.0 (Windows NT 10.0; Win64; x64) AppleWebKit/537.36 (KHTML, like Gecko) Chrome/101.0.0.0 Safari/537.36" etag="7BvA7u4uRBtw5_ri30J2" version="20.0.1" type="github">
  <diagram id="GNmUOovBcOgg2i-mpCEL" name="第 1 页">
    <mxGraphModel dx="1038" dy="615" grid="1" gridSize="10" guides="1" tooltips="1" connect="1" arrows="1" fold="1" page="1" pageScale="1" pageWidth="827" pageHeight="1169" math="0" shadow="0">
      <root>
        <mxCell id="0" />
        <mxCell id="1" parent="0" />
        <mxCell id="X8viqPo1UiMnWG_u_1NP-6" value="" style="edgeStyle=orthogonalEdgeStyle;rounded=0;orthogonalLoop=1;jettySize=auto;html=1;strokeWidth=2;" edge="1" parent="1" source="X8viqPo1UiMnWG_u_1NP-1">
          <mxGeometry relative="1" as="geometry">
            <mxPoint x="400" y="270" as="targetPoint" />
          </mxGeometry>
        </mxCell>
        <mxCell id="X8viqPo1UiMnWG_u_1NP-1" value="用户登录" style="rounded=1;whiteSpace=wrap;html=1;strokeWidth=2;fontSize=14;fillColor=#dae8fc;strokeColor=#6c8ebf;" vertex="1" parent="1">
          <mxGeometry x="340" y="130" width="120" height="60" as="geometry" />
        </mxCell>
        <mxCell id="X8viqPo1UiMnWG_u_1NP-8" value="" style="edgeStyle=orthogonalEdgeStyle;rounded=0;orthogonalLoop=1;jettySize=auto;html=1;strokeWidth=2;startArrow=none;" edge="1" parent="1" source="X8viqPo1UiMnWG_u_1NP-9" target="X8viqPo1UiMnWG_u_1NP-7">
          <mxGeometry relative="1" as="geometry">
            <Array as="points">
              <mxPoint x="620" y="310" />
              <mxPoint x="620" y="310" />
            </Array>
          </mxGeometry>
        </mxCell>
        <mxCell id="X8viqPo1UiMnWG_u_1NP-12" value="" style="edgeStyle=orthogonalEdgeStyle;rounded=0;orthogonalLoop=1;jettySize=auto;html=1;strokeWidth=2;entryX=0.5;entryY=0;entryDx=0;entryDy=0;exitX=0.5;exitY=1;exitDx=0;exitDy=0;" edge="1" parent="1" source="X8viqPo1UiMnWG_u_1NP-35" target="X8viqPo1UiMnWG_u_1NP-14">
          <mxGeometry relative="1" as="geometry">
            <mxPoint x="400" y="330" as="sourcePoint" />
            <mxPoint x="400" y="410" as="targetPoint" />
            <Array as="points">
              <mxPoint x="400" y="340" />
            </Array>
          </mxGeometry>
        </mxCell>
        <mxCell id="X8viqPo1UiMnWG_u_1NP-13" value="true" style="edgeLabel;html=1;align=center;verticalAlign=middle;resizable=0;points=[];" vertex="1" connectable="0" parent="X8viqPo1UiMnWG_u_1NP-12">
          <mxGeometry x="-0.235" y="-1" relative="1" as="geometry">
            <mxPoint as="offset" />
          </mxGeometry>
        </mxCell>
        <mxCell id="X8viqPo1UiMnWG_u_1NP-34" value="" style="edgeStyle=orthogonalEdgeStyle;rounded=0;orthogonalLoop=1;jettySize=auto;html=1;fontFamily=Helvetica;fontSize=14;fontColor=default;strokeWidth=2;" edge="1" parent="1" source="X8viqPo1UiMnWG_u_1NP-7" target="X8viqPo1UiMnWG_u_1NP-33">
          <mxGeometry relative="1" as="geometry" />
        </mxCell>
        <mxCell id="X8viqPo1UiMnWG_u_1NP-7" value="游客身份登录" style="rounded=1;whiteSpace=wrap;html=1;strokeWidth=2;fontSize=14;fillColor=#dae8fc;strokeColor=#6c8ebf;" vertex="1" parent="1">
          <mxGeometry x="630" y="280" width="120" height="60" as="geometry" />
        </mxCell>
        <mxCell id="X8viqPo1UiMnWG_u_1NP-9" value="false" style="text;html=1;strokeColor=none;fillColor=none;align=center;verticalAlign=middle;whiteSpace=wrap;rounded=0;" vertex="1" parent="1">
          <mxGeometry x="510" y="295" width="60" height="30" as="geometry" />
        </mxCell>
        <mxCell id="X8viqPo1UiMnWG_u_1NP-10" value="" style="edgeStyle=orthogonalEdgeStyle;rounded=0;orthogonalLoop=1;jettySize=auto;html=1;strokeWidth=2;endArrow=none;exitX=1;exitY=0.5;exitDx=0;exitDy=0;" edge="1" parent="1" source="X8viqPo1UiMnWG_u_1NP-35" target="X8viqPo1UiMnWG_u_1NP-9">
          <mxGeometry relative="1" as="geometry">
            <mxPoint x="460" y="300" as="sourcePoint" />
            <mxPoint x="620" y="300" as="targetPoint" />
            <Array as="points">
              <mxPoint x="500" y="310" />
              <mxPoint x="500" y="310" />
            </Array>
          </mxGeometry>
        </mxCell>
        <mxCell id="X8viqPo1UiMnWG_u_1NP-17" value="" style="edgeStyle=orthogonalEdgeStyle;rounded=0;orthogonalLoop=1;jettySize=auto;html=1;strokeWidth=2;" edge="1" parent="1" source="X8viqPo1UiMnWG_u_1NP-14" target="X8viqPo1UiMnWG_u_1NP-16">
          <mxGeometry relative="1" as="geometry" />
        </mxCell>
        <mxCell id="X8viqPo1UiMnWG_u_1NP-18" value="null" style="edgeLabel;html=1;align=center;verticalAlign=middle;resizable=0;points=[];" vertex="1" connectable="0" parent="X8viqPo1UiMnWG_u_1NP-17">
          <mxGeometry x="-0.23" y="2" relative="1" as="geometry">
            <mxPoint as="offset" />
          </mxGeometry>
        </mxCell>
        <mxCell id="X8viqPo1UiMnWG_u_1NP-20" value="" style="edgeStyle=orthogonalEdgeStyle;rounded=0;orthogonalLoop=1;jettySize=auto;html=1;fontSize=14;strokeWidth=2;" edge="1" parent="1" source="X8viqPo1UiMnWG_u_1NP-14">
          <mxGeometry relative="1" as="geometry">
            <mxPoint x="400" y="580" as="targetPoint" />
          </mxGeometry>
        </mxCell>
        <mxCell id="X8viqPo1UiMnWG_u_1NP-21" value="存在" style="edgeLabel;html=1;align=center;verticalAlign=middle;resizable=0;points=[];fontSize=14;" vertex="1" connectable="0" parent="X8viqPo1UiMnWG_u_1NP-20">
          <mxGeometry x="-0.3156" relative="1" as="geometry">
            <mxPoint as="offset" />
          </mxGeometry>
        </mxCell>
        <mxCell id="X8viqPo1UiMnWG_u_1NP-14" value="&#xa;&lt;span style=&quot;color: rgb(0, 0, 0); font-family: Helvetica; font-size: 14px; font-style: normal; font-variant-ligatures: normal; font-variant-caps: normal; font-weight: 400; letter-spacing: normal; orphans: 2; text-align: center; text-indent: 0px; text-transform: none; widows: 2; word-spacing: 0px; -webkit-text-stroke-width: 0px; background-color: rgb(248, 249, 250); text-decoration-thickness: initial; text-decoration-style: initial; text-decoration-color: initial; float: none; display: inline !important;&quot;&gt;根据手机号查询用户&lt;/span&gt;&#xa;&#xa;" style="rhombus;whiteSpace=wrap;html=1;fillColor=#f8cecc;strokeColor=#b85450;" vertex="1" parent="1">
          <mxGeometry x="330" y="430" width="140" height="80" as="geometry" />
        </mxCell>
        <mxCell id="X8viqPo1UiMnWG_u_1NP-16" value="返回用户不存在" style="whiteSpace=wrap;html=1;fillColor=#ffe6cc;strokeColor=#d79b00;fontSize=14;" vertex="1" parent="1">
          <mxGeometry x="90" y="420" width="120" height="60" as="geometry" />
        </mxCell>
        <mxCell id="X8viqPo1UiMnWG_u_1NP-24" value="" style="edgeStyle=orthogonalEdgeStyle;rounded=0;orthogonalLoop=1;jettySize=auto;html=1;fontFamily=Helvetica;fontSize=14;fontColor=default;strokeWidth=2;" edge="1" parent="1" source="X8viqPo1UiMnWG_u_1NP-22" target="X8viqPo1UiMnWG_u_1NP-23">
          <mxGeometry relative="1" as="geometry" />
        </mxCell>
        <mxCell id="X8viqPo1UiMnWG_u_1NP-22" value="从数据库获取用户的salt 和密码" style="whiteSpace=wrap;html=1;fillColor=#dae8fc;strokeColor=#6c8ebf;fontSize=14;" vertex="1" parent="1">
          <mxGeometry x="340" y="580" width="120" height="60" as="geometry" />
        </mxCell>
        <mxCell id="X8viqPo1UiMnWG_u_1NP-26" value="" style="edgeStyle=orthogonalEdgeStyle;rounded=0;orthogonalLoop=1;jettySize=auto;html=1;fontFamily=Helvetica;fontSize=14;fontColor=default;strokeWidth=2;" edge="1" parent="1" source="X8viqPo1UiMnWG_u_1NP-23" target="X8viqPo1UiMnWG_u_1NP-25">
          <mxGeometry relative="1" as="geometry" />
        </mxCell>
        <mxCell id="X8viqPo1UiMnWG_u_1NP-23" value="使用salt和页面传的密码进行MD5加密" style="whiteSpace=wrap;html=1;fillColor=#dae8fc;strokeColor=#6c8ebf;fontSize=14;" vertex="1" parent="1">
          <mxGeometry x="340" y="720" width="120" height="60" as="geometry" />
        </mxCell>
        <mxCell id="X8viqPo1UiMnWG_u_1NP-28" value="" style="edgeStyle=orthogonalEdgeStyle;rounded=0;orthogonalLoop=1;jettySize=auto;html=1;fontFamily=Helvetica;fontSize=14;fontColor=default;strokeWidth=2;" edge="1" parent="1" source="X8viqPo1UiMnWG_u_1NP-25" target="X8viqPo1UiMnWG_u_1NP-27">
          <mxGeometry relative="1" as="geometry" />
        </mxCell>
        <mxCell id="X8viqPo1UiMnWG_u_1NP-29" value="false" style="edgeLabel;html=1;align=center;verticalAlign=middle;resizable=0;points=[];fontSize=14;fontFamily=Helvetica;fontColor=default;" vertex="1" connectable="0" parent="X8viqPo1UiMnWG_u_1NP-28">
          <mxGeometry x="0.264" y="-1" relative="1" as="geometry">
            <mxPoint as="offset" />
          </mxGeometry>
        </mxCell>
        <mxCell id="X8viqPo1UiMnWG_u_1NP-31" value="" style="edgeStyle=orthogonalEdgeStyle;rounded=0;orthogonalLoop=1;jettySize=auto;html=1;fontFamily=Helvetica;fontSize=14;fontColor=default;strokeWidth=2;" edge="1" parent="1" source="X8viqPo1UiMnWG_u_1NP-25" target="X8viqPo1UiMnWG_u_1NP-30">
          <mxGeometry relative="1" as="geometry" />
        </mxCell>
        <mxCell id="X8viqPo1UiMnWG_u_1NP-32" value="true" style="edgeLabel;html=1;align=center;verticalAlign=middle;resizable=0;points=[];fontSize=14;fontFamily=Helvetica;fontColor=default;" vertex="1" connectable="0" parent="X8viqPo1UiMnWG_u_1NP-31">
          <mxGeometry x="-0.2844" y="-1" relative="1" as="geometry">
            <mxPoint as="offset" />
          </mxGeometry>
        </mxCell>
        <mxCell id="X8viqPo1UiMnWG_u_1NP-25" value="密码比对" style="rhombus;whiteSpace=wrap;html=1;fontSize=14;fillColor=#d5e8d4;strokeColor=#82b366;" vertex="1" parent="1">
          <mxGeometry x="320" y="850" width="160" height="80" as="geometry" />
        </mxCell>
        <mxCell id="X8viqPo1UiMnWG_u_1NP-27" value="返回密码不正确&lt;br&gt;（用户和密码）" style="whiteSpace=wrap;html=1;fontSize=14;fillColor=#f0a30a;strokeColor=#BD7000;fontColor=#000000;" vertex="1" parent="1">
          <mxGeometry x="100" y="860" width="120" height="60" as="geometry" />
        </mxCell>
        <mxCell id="X8viqPo1UiMnWG_u_1NP-30" value="生成token&lt;br&gt;设置salt和密码为空&lt;br&gt;返回给前端" style="rounded=1;whiteSpace=wrap;html=1;fontSize=14;fillColor=#647687;strokeColor=#314354;fontColor=#ffffff;" vertex="1" parent="1">
          <mxGeometry x="320" y="1020" width="160" height="60" as="geometry" />
        </mxCell>
        <mxCell id="X8viqPo1UiMnWG_u_1NP-33" value="生成token返回给前端" style="rounded=1;whiteSpace=wrap;html=1;strokeWidth=2;fontSize=14;fillColor=#dae8fc;strokeColor=#6c8ebf;" vertex="1" parent="1">
          <mxGeometry x="630" y="410" width="120" height="60" as="geometry" />
        </mxCell>
        <mxCell id="X8viqPo1UiMnWG_u_1NP-35" value="&lt;span style=&quot;font-size: 14px;&quot;&gt;验证手机号和密码&lt;/span&gt;" style="rhombus;whiteSpace=wrap;html=1;fillColor=#fff2cc;strokeColor=#d6b656;" vertex="1" parent="1">
          <mxGeometry x="330" y="270" width="140" height="80" as="geometry" />
        </mxCell>
      </root>
    </mxGraphModel>
  </diagram>
</mxfile>
